
<svg version="1.0" xmlns="http://www.w3.org/2000/svg"
 width="400.000000pt" height="400.000000pt" viewBox="0 0 400.000000 400.000000"
 preserveAspectRatio="xMidYMid meet">

<g transform="translate(0.000000,400.000000) scale(0.100000,-0.100000)"
fill="#000000" stroke="none">
<path d="M1856 3275 c-150 -41 -293 -159 -358 -295 -43 -90 -58 -155 -58 -258
0 -94 19 -171 62 -255 18 -34 34 -65 36 -69 2 -5 -264 -8 -592 -8 l-596 0 0
-478 0 -479 217 -6 c120 -4 765 -7 1433 -7 668 0 1313 3 1433 7 l217 6 0 479
0 478 -590 0 c-324 0 -590 4 -590 8 0 5 13 33 29 63 47 87 65 162 64 269 -1
160 -59 296 -174 407 -64 61 -161 116 -244 138 -72 18 -221 18 -289 0z m277
-20 c242 -63 411 -279 411 -525 -1 -276 -198 -502 -474 -541 -168 -24 -321 31
-451 160 -112 113 -159 222 -159 375 0 152 52 277 160 386 106 107 227 158
375 159 45 1 107 -6 138 -14z m-541 -922 c10 -9 18 -20 18 -25 0 -4 -263 -8
-585 -8 l-585 0 0 -390 0 -390 1560 0 1560 0 0 390 0 390 -579 0 c-319 0 -582
4 -585 9 -3 4 3 16 13 25 16 15 72 16 607 14 l589 -3 0 -435 0 -435 -1605 0
-1605 0 -3 425 c-1 234 0 431 3 438 3 9 131 12 591 12 533 0 589 -2 606 -17z
m-701 -189 l69 -16 0 -59 c0 -32 -2 -59 -4 -59 -2 0 -28 11 -58 25 -60 28
-152 34 -182 12 -31 -22 -16 -51 34 -65 25 -7 70 -20 100 -29 75 -21 107 -46
121 -94 24 -78 -31 -164 -118 -188 -59 -17 -191 -12 -243 7 l-45 17 -3 58 c-2
31 1 57 5 57 4 0 30 -11 56 -25 84 -42 195 -45 216 -6 18 32 -9 50 -104 73
-77 18 -96 26 -127 58 -33 33 -38 44 -38 84 0 80 36 124 125 152 55 17 114 17
196 -2z m509 -225 c47 -127 85 -236 85 -243 0 -12 -115 -10 -126 2 -4 4 -12
24 -19 45 l-12 37 -88 0 -88 0 -14 -42 c-14 -42 -16 -43 -64 -48 -87 -9 -86
-10 -52 83 17 45 52 141 78 212 27 72 53 142 59 158 10 26 13 27 83 27 l73 0
85 -231z m520 181 l0 -50 -75 0 -75 0 0 -190 c0 -174 -1 -190 -17 -191 -10 -1
-35 -2 -55 -3 -20 -2 -42 0 -48 4 -7 5 -10 66 -8 193 l3 186 -75 3 -75 3 -3
33 c-6 64 -13 62 218 62 l210 0 0 -50z m190 -40 l0 -91 88 3 87 3 2 60 c1 33
2 72 2 88 1 26 2 27 61 27 l60 0 0 -239 0 -239 -51 -4 c-28 -1 -55 -1 -60 2
-4 3 -10 51 -11 105 l-3 100 -87 3 -88 3 0 -104 c0 -57 -2 -106 -4 -108 -2 -2
-32 -2 -65 -1 l-61 4 0 239 0 239 65 0 65 0 0 -90z m500 83 c0 -5 22 -46 49
-92 l48 -83 49 91 49 91 67 0 c38 0 68 -3 68 -6 0 -4 -37 -68 -82 -142 l-83
-136 -5 -100 c-6 -111 -5 -110 -87 -99 l-43 6 0 86 0 86 -85 142 c-47 79 -85
147 -85 153 0 12 140 14 140 3z m739 -233 c48 -129 83 -238 78 -241 -5 -3 -18
-5 -30 -4 -12 1 -38 3 -58 4 -34 1 -37 4 -49 46 l-13 46 -90 -3 -89 -3 -17
-43 -16 -44 -63 -1 c-34 -1 -62 0 -62 3 0 3 39 112 87 243 l88 238 73 -3 74
-3 87 -235z"/>
<path d="M1881 3220 c-100 -24 -216 -100 -277 -182 -78 -106 -106 -189 -105
-312 1 -308 276 -545 578 -498 188 30 342 159 404 340 91 263 -61 559 -329
642 -67 21 -203 26 -271 10z m229 -21 c72 -16 161 -64 222 -119 101 -90 168
-265 152 -396 -28 -234 -200 -407 -435 -439 -124 -16 -293 46 -389 145 -257
262 -146 687 209 801 63 20 173 24 241 8z"/>
<path d="M1961 3143 c4 -49 -1 -63 -19 -63 -22 0 -57 35 -48 48 3 5 0 15 -8
21 -18 15 -39 -8 -26 -29 13 -20 13 -57 0 -65 -14 -9 -50 13 -50 30 0 8 -9 15
-20 15 -25 0 -25 -16 0 -44 10 -11 28 -32 37 -44 l19 -24 49 27 c42 22 60 26
108 23 54 -4 57 -3 57 19 0 13 6 39 14 58 15 34 12 45 -11 45 -7 0 -13 -11
-13 -25 0 -31 -33 -51 -49 -31 -7 8 -9 25 -5 40 5 22 3 26 -16 26 -17 0 -21
-5 -19 -27z"/>
<path d="M1899 3005 c-42 -23 -62 -73 -57 -139 4 -50 9 -62 46 -99 l42 -43 0
-92 c0 -81 -2 -92 -17 -92 -10 0 -27 -7 -38 -15 -19 -15 -18 -16 18 -46 31
-26 37 -37 37 -70 0 -27 -4 -39 -14 -39 -24 0 -66 60 -84 121 -9 32 -21 57
-27 56 -10 -4 -20 -227 -10 -227 3 0 14 5 25 12 16 10 27 8 65 -10 138 -67
250 -38 321 84 31 53 43 152 25 207 -20 59 -76 122 -153 172 -87 57 -118 90
-118 127 0 74 123 58 179 -23 14 -21 30 -38 34 -39 9 0 -1 117 -10 133 -3 4
-11 3 -18 -3 -9 -8 -25 -4 -60 15 -55 29 -143 34 -186 10z m173 -409 c22 -30
28 -50 28 -88 0 -55 -18 -106 -45 -128 -17 -14 -18 -13 -12 22 l6 37 -38 -2
c-29 -1 -46 6 -79 33 -23 19 -42 38 -42 43 0 16 49 6 84 -18 71 -48 102 -16
54 55 -34 50 -48 49 -48 -1 0 -41 0 -42 -20 -24 -17 15 -20 31 -20 95 0 42 3
79 6 83 10 9 93 -62 126 -107z m-42 -103 c0 -7 -6 -10 -15 -7 -8 4 -15 18 -15
33 1 25 1 25 15 7 8 -11 15 -26 15 -33z m-50 -109 c0 -22 -5 -34 -14 -34 -14
0 -24 33 -18 62 6 30 32 8 32 -28z m40 12 c0 -14 -4 -28 -10 -31 -6 -4 -10 7
-10 24 0 17 5 31 10 31 6 0 10 -11 10 -24z"/>
<path d="M1212 1932 c-12 -38 -22 -71 -22 -75 0 -6 100 -5 100 2 0 14 -45 141
-50 141 -3 0 -16 -31 -28 -68z"/>
<path d="M3160 1937 c-14 -40 -24 -74 -23 -77 4 -7 74 -12 90 -6 9 4 6 23 -12
77 -14 40 -26 74 -28 75 -1 2 -14 -29 -27 -69z"/>
<path d="M1114 1276 c-40 -18 -80 -71 -88 -119 -25 -137 67 -235 194 -209 26
6 36 14 38 30 3 20 1 21 -42 16 -24 -4 -56 -4 -71 0 -78 20 -89 197 -14 237
12 6 46 9 77 7 47 -2 57 0 60 14 7 35 -93 50 -154 24z"/>
<path d="M2130 1272 c-57 -28 -80 -73 -80 -156 0 -115 49 -169 156 -169 95 0
154 65 154 169 0 102 -64 174 -155 174 -22 0 -56 -8 -75 -18z m140 -52 c26
-26 33 -59 28 -127 -4 -46 -10 -61 -32 -80 -38 -33 -95 -31 -129 3 -48 47 -44
174 6 209 31 22 102 20 127 -5z"/>
<path d="M2474 1281 c-47 -20 -68 -86 -44 -132 6 -10 37 -33 70 -49 71 -36 86
-57 63 -90 -14 -19 -22 -22 -67 -17 -28 2 -59 8 -68 12 -15 6 -18 2 -18 -19 0
-20 6 -27 28 -32 15 -3 34 -8 43 -10 32 -9 104 15 127 41 46 54 22 111 -68
154 -62 30 -80 53 -64 79 9 13 25 17 72 16 46 -1 63 3 67 14 3 9 2 19 -3 24
-13 13 -114 19 -138 9z"/>
<path d="M2764 1276 c-49 -22 -76 -68 -81 -140 -10 -122 45 -189 153 -189 100
0 154 59 154 168 0 68 -21 118 -62 148 -35 26 -122 33 -164 13z m133 -51 c50
-35 53 -162 6 -210 -34 -33 -91 -34 -129 -2 -22 19 -28 34 -32 80 -5 69 2 100
30 127 27 24 94 27 125 5z"/>
<path d="M470 1260 c0 -17 7 -20 50 -20 l50 0 0 -145 0 -145 25 0 24 0 3 143
3 142 48 3 c39 3 47 6 47 23 0 18 -8 19 -125 19 -118 0 -125 -1 -125 -20z"/>
<path d="M778 1115 l-3 -165 91 0 c70 0 93 3 97 14 9 22 -2 26 -70 26 l-63 0
0 55 0 55 66 0 c62 0 65 1 62 23 -3 20 -9 22 -65 25 l-63 3 0 44 0 44 68 3
c52 2 67 6 67 18 0 12 -18 16 -92 18 l-92 3 -3 -166z"/>
<path d="M1340 1115 l0 -165 25 0 c24 0 25 2 25 75 l0 75 80 0 80 0 0 -75 c0
-73 1 -75 25 -75 l25 0 0 165 0 165 -25 0 c-24 0 -25 -2 -25 -65 l0 -65 -80 0
-80 0 0 65 c0 63 -1 65 -25 65 l-25 0 0 -165z"/>
<path d="M1690 1115 l0 -165 25 0 24 0 3 128 3 127 79 -127 c76 -123 80 -128
112 -128 l34 0 0 165 0 165 -26 0 -26 0 4 -130 c2 -72 2 -130 1 -130 -1 0 -38
59 -83 130 -79 125 -83 130 -116 130 l-34 0 0 -165z"/>
<path d="M3068 1115 l-3 -165 28 0 c27 0 27 1 27 65 l0 64 63 3 c56 3 62 5 65
26 3 21 0 22 -62 22 l-66 0 0 55 0 55 65 0 c58 0 65 2 65 20 0 19 -7 20 -90
20 l-89 0 -3 -165z"/>
<path d="M3280 1260 c0 -17 7 -20 50 -20 l50 0 0 -145 0 -145 25 0 24 0 3 143
3 142 48 3 c39 3 47 6 47 23 0 18 -8 19 -125 19 -118 0 -125 -1 -125 -20z"/>
</g>
</svg>
